<svg xmlns="http://www.w3.org/2000/svg" viewBox="0 0 42 56">
  <path fill="#fff" d="M29.8 11.7C25.9 7.9 22.2 4.2 21.1 0c-1.1 4.2-4.8 7.9-8.7 11.7C6.6 17.5 0 24.1 0 34c-.3 11.6 9 21.3 20.6 21.5s21.3-9 21.5-20.6V34c.1-9.9-6.5-16.5-12.3-22.3zm-19 24.2c-.6.8-1.2 1.7-1.6 2.6-.1.1-.2.3-.4.3h-.1c-.5 0-1-.9-1-.9-.1-.2-.3-.5-.4-.7l-.1-.2c-1.3-2.8-.2-6.7-.2-6.7.5-1.9 1.4-3.8 2.5-5.4.7-1 1.5-2 2.3-3l1 1 4.7 4.8c.2.2.2.5 0 .7l-4.9 5.5-1.8 2zm10.5 13.8c-4 0-7.3-3.3-7.2-7.3 0-1.8.7-3.5 1.8-4.8 1.5-1.8 3.4-3.6 5.5-6 2.4 2.6 4 4.3 5.5 6.3.1.1.2.3.3.5.8 1.2 1.3 2.6 1.3 4.1.1 4-3.2 7.2-7.2 7.2zM35 38.1c-.1.3-.4.5-.7.6h-.1c-.3-.1-.5-.3-.7-.5-1.3-1.9-2.7-3.7-4.3-5.3l-1.9-2-6.4-6.6c-1.3-1.2-2.6-2.6-3.8-3.9 0-.1-.1-.1-.1-.1-.2-.3-.4-.6-.5-1v-.2c-.2-1.1.2-2.2 1-3 1.2-1.2 2.5-2.5 3.7-3.8 1.3 1.4 2.7 2.8 4.1 4.2 2.8 2.6 5.3 5.5 7.6 8.6 1.9 2.7 2.9 5.8 2.9 9.1-.2 1.2-.4 2.6-.8 3.9z"/>
</svg>
